<?xml version="1.0" encoding="utf-8"?>
<!-- Generator: Adobe Illustrator 18.0.0, SVG Export Plug-In . SVG Version: 6.00 Build 0)  -->
<!DOCTYPE svg PUBLIC "-//W3C//DTD SVG 1.1//EN" "http://www.w3.org/Graphics/SVG/1.1/DTD/svg11.dtd">
<svg version="1.1" id="Layer_1" xmlns="http://www.w3.org/2000/svg" xmlns:xlink="http://www.w3.org/1999/xlink" x="0px" y="0px"
	 viewBox="0 0 256 255" enable-background="new 0 0 256 255" xml:space="preserve">
<rect x="-1.8" y="-1.4" fill="#191E23" width="260.1" height="256.7"/>
<g>
	<path fill="#FFFFFF" d="M67.9,63.8C52.3,67.4,41.1,77.2,40,89.2c-0.6,7.2,0.4,14.5,5.1,20.3c6.2,7.7,12.9,11.7,24.7,10.1
		c5.8-0.8,6.6-5.7,4.2-6.5c-1.9-0.6-12.3-6.1-11.8-23.4c0.2-6.6,1.1-15,9.7-19.5C75.3,68.5,72,62.9,67.9,63.8z"/>
	<path fill="#FFFFFF" d="M188.3,74c-6.1,25-25.6,64.4-41.3,92.1c2.5-25.9,4.6-61.9,4.2-81.4c-0.3-14.7-10.8-23.7-28.1-23.7
		c-2,0-4,0-6,0.2C93,64,79.6,73.1,76.2,89.3c-1.5,7.1,0.4,14.5,5.1,20.3c6.2,7.7,16,11.4,27.9,9.8c5.8-0.8,7.8-3.7,7.7-6.3
		c-0.1-2.5-2-5.3-7.2-5.8c-2-0.2-8-0.7-8.2-12.1c-0.1-4.9,1.2-8.8,3.9-11.6c2.7-2.8,7-4.4,11.6-4.4c4.4,0,6.9,8.4,6.9,10.9
		c0,2.5-0.6,29.9-1.6,50.6c-0.9,17.7-1.7,30.7-1.4,42.6c0.1,2.6,2.2,11.7,10.8,11.7c1.7,0,1.9,0,5.3,0c8.5,0,20.5-6.5,29.2-17.7
		C181,158.2,213.4,99,216.1,74H188.3z"/>
</g>
</svg>
